<mxfile host="app.diagrams.net" modified="2024-03-27T02:46:07.155Z" agent="Mozilla/5.0 (Windows NT 10.0; Win64; x64) AppleWebKit/537.36 (KHTML, like Gecko) Chrome/123.0.0.0 Safari/537.36" etag="rNnJ-HLpSh87cYwkE2Fv" version="24.0.7" type="device">
  <diagram name="Page-1" id="e7e014a7-5840-1c2e-5031-d8a46d1fe8dd">
    <mxGraphModel dx="1129" dy="847" grid="1" gridSize="10" guides="1" tooltips="1" connect="1" arrows="1" fold="1" page="1" pageScale="1" pageWidth="1169" pageHeight="826" background="none" math="0" shadow="0">
      <root>
        <mxCell id="0" />
        <mxCell id="1" parent="0" />
        <mxCell id="2" value="sistem informasi perpusatakaan" style="swimlane;whiteSpace=wrap" parent="1" vertex="1">
          <mxGeometry x="180" y="190" width="830" height="570" as="geometry" />
        </mxCell>
        <mxCell id="JGMcSEGUxq5qfV1gp_m0-41" value="Actor" style="shape=umlLifeline;verticalLabelPosition=bottom;verticalAlign=top;html=1;perimeter=lifelinePerimeter;whiteSpace=wrap;container=1;dropTarget=0;collapsible=0;recursiveResize=0;outlineConnect=0;portConstraint=eastwest;newEdgeStyle={&quot;curved&quot;:0,&quot;rounded&quot;:0};participant=umlActor;" parent="2" vertex="1">
          <mxGeometry x="25.5" y="82" width="30" height="60" as="geometry" />
        </mxCell>
        <mxCell id="JGMcSEGUxq5qfV1gp_m0-44" value="user&lt;div&gt;anggota&lt;/div&gt;" style="text;html=1;align=center;verticalAlign=middle;resizable=0;points=[];autosize=1;strokeColor=none;fillColor=none;" parent="2" vertex="1">
          <mxGeometry x="5.5" y="152" width="70" height="40" as="geometry" />
        </mxCell>
        <mxCell id="JGMcSEGUxq5qfV1gp_m0-45" value="" style="html=1;points=[[0,0,0,0,5],[0,1,0,0,-5],[1,0,0,0,5],[1,1,0,0,-5]];perimeter=orthogonalPerimeter;outlineConnect=0;targetShapes=umlLifeline;portConstraint=eastwest;newEdgeStyle={&quot;curved&quot;:0,&quot;rounded&quot;:0};" parent="2" vertex="1">
          <mxGeometry x="35.5" y="192" width="10" height="368" as="geometry" />
        </mxCell>
        <mxCell id="JGMcSEGUxq5qfV1gp_m0-46" value="" style="html=1;points=[[0,0,0,0,5],[0,1,0,0,-5],[1,0,0,0,5],[1,1,0,0,-5]];perimeter=orthogonalPerimeter;outlineConnect=0;targetShapes=umlLifeline;portConstraint=eastwest;newEdgeStyle={&quot;curved&quot;:0,&quot;rounded&quot;:0};" parent="2" vertex="1">
          <mxGeometry x="260" y="190" width="10" height="120" as="geometry" />
        </mxCell>
        <mxCell id="JGMcSEGUxq5qfV1gp_m0-50" value="" style="endArrow=open;endFill=1;endSize=12;html=1;rounded=0;" parent="2" edge="1">
          <mxGeometry width="160" relative="1" as="geometry">
            <mxPoint x="50" y="200" as="sourcePoint" />
            <mxPoint x="140" y="200" as="targetPoint" />
          </mxGeometry>
        </mxCell>
        <mxCell id="JGMcSEGUxq5qfV1gp_m0-52" value="" style="endArrow=block;dashed=1;endFill=0;endSize=12;html=1;rounded=0;exitX=0;exitY=0.746;exitDx=0;exitDy=0;exitPerimeter=0;" parent="2" edge="1">
          <mxGeometry width="160" relative="1" as="geometry">
            <mxPoint x="140" y="280.0279999999999" as="sourcePoint" />
            <mxPoint x="50" y="280" as="targetPoint" />
          </mxGeometry>
        </mxCell>
        <mxCell id="JGMcSEGUxq5qfV1gp_m0-51" value="klik menu cari" style="text;html=1;align=center;verticalAlign=middle;resizable=0;points=[];autosize=1;strokeColor=none;fillColor=none;" parent="2" vertex="1">
          <mxGeometry x="40" y="180" width="100" height="30" as="geometry" />
        </mxCell>
        <mxCell id="JGMcSEGUxq5qfV1gp_m0-53" value="menu pencarian&amp;nbsp;&lt;div&gt;tampil&lt;/div&gt;" style="text;html=1;align=center;verticalAlign=middle;resizable=0;points=[];autosize=1;strokeColor=none;fillColor=none;" parent="2" vertex="1">
          <mxGeometry x="40" y="280" width="110" height="40" as="geometry" />
        </mxCell>
        <mxCell id="JGMcSEGUxq5qfV1gp_m0-55" value="" style="endArrow=open;endFill=1;endSize=12;html=1;rounded=0;" parent="2" edge="1">
          <mxGeometry width="160" relative="1" as="geometry">
            <mxPoint x="160" y="230" as="sourcePoint" />
            <mxPoint x="250" y="230" as="targetPoint" />
            <Array as="points">
              <mxPoint x="210" y="230" />
            </Array>
          </mxGeometry>
        </mxCell>
        <mxCell id="JGMcSEGUxq5qfV1gp_m0-59" value="" style="endArrow=block;dashed=1;endFill=0;endSize=12;html=1;rounded=0;exitX=0;exitY=0.746;exitDx=0;exitDy=0;exitPerimeter=0;" parent="2" edge="1">
          <mxGeometry width="160" relative="1" as="geometry">
            <mxPoint x="500" y="420" as="sourcePoint" />
            <mxPoint x="410" y="420" as="targetPoint" />
          </mxGeometry>
        </mxCell>
        <mxCell id="JGMcSEGUxq5qfV1gp_m0-60" value="" style="endArrow=block;dashed=1;endFill=0;endSize=12;html=1;rounded=0;exitX=0;exitY=0.746;exitDx=0;exitDy=0;exitPerimeter=0;" parent="2" edge="1">
          <mxGeometry width="160" relative="1" as="geometry">
            <mxPoint x="625" y="420" as="sourcePoint" />
            <mxPoint x="535" y="420" as="targetPoint" />
          </mxGeometry>
        </mxCell>
        <mxCell id="JGMcSEGUxq5qfV1gp_m0-61" value="" style="endArrow=block;dashed=1;endFill=0;endSize=12;html=1;rounded=0;exitX=0;exitY=0.746;exitDx=0;exitDy=0;exitPerimeter=0;" parent="2" edge="1">
          <mxGeometry width="160" relative="1" as="geometry">
            <mxPoint x="250" y="280" as="sourcePoint" />
            <mxPoint x="160" y="280" as="targetPoint" />
          </mxGeometry>
        </mxCell>
        <mxCell id="JGMcSEGUxq5qfV1gp_m0-62" value="" style="endArrow=block;dashed=1;endFill=0;endSize=12;html=1;rounded=0;" parent="2" edge="1">
          <mxGeometry width="160" relative="1" as="geometry">
            <mxPoint x="370" y="410" as="sourcePoint" />
            <mxPoint x="50" y="410" as="targetPoint" />
            <Array as="points" />
          </mxGeometry>
        </mxCell>
        <mxCell id="JGMcSEGUxq5qfV1gp_m0-64" value="" style="endArrow=open;endFill=1;endSize=12;html=1;rounded=0;" parent="2" source="JGMcSEGUxq5qfV1gp_m0-45" edge="1">
          <mxGeometry width="160" relative="1" as="geometry">
            <mxPoint x="60" y="210" as="sourcePoint" />
            <mxPoint x="250" y="350" as="targetPoint" />
            <Array as="points">
              <mxPoint x="180" y="350" />
            </Array>
          </mxGeometry>
        </mxCell>
        <mxCell id="JGMcSEGUxq5qfV1gp_m0-66" value="input judul/penulis&amp;nbsp;" style="text;html=1;align=center;verticalAlign=middle;resizable=0;points=[];autosize=1;strokeColor=none;fillColor=none;" parent="2" vertex="1">
          <mxGeometry x="90" y="327" width="120" height="30" as="geometry" />
        </mxCell>
        <mxCell id="JGMcSEGUxq5qfV1gp_m0-68" value="" style="endArrow=open;endFill=1;endSize=12;html=1;rounded=0;" parent="2" edge="1">
          <mxGeometry width="160" relative="1" as="geometry">
            <mxPoint x="45.5" y="470" as="sourcePoint" />
            <mxPoint x="369.5" y="470" as="targetPoint" />
            <Array as="points">
              <mxPoint x="179.5" y="470" />
            </Array>
          </mxGeometry>
        </mxCell>
        <mxCell id="JGMcSEGUxq5qfV1gp_m0-63" value="tampil menu&amp;nbsp;&lt;div&gt;pencarian&lt;/div&gt;" style="text;html=1;align=center;verticalAlign=middle;resizable=0;points=[];autosize=1;strokeColor=none;fillColor=none;" parent="2" vertex="1">
          <mxGeometry x="170" y="280" width="90" height="40" as="geometry" />
        </mxCell>
        <mxCell id="JGMcSEGUxq5qfV1gp_m0-74" value="" style="endArrow=open;endFill=1;endSize=12;html=1;rounded=0;" parent="2" edge="1">
          <mxGeometry width="160" relative="1" as="geometry">
            <mxPoint x="400" y="370" as="sourcePoint" />
            <mxPoint x="500" y="370" as="targetPoint" />
            <Array as="points">
              <mxPoint x="460" y="370" />
            </Array>
          </mxGeometry>
        </mxCell>
        <mxCell id="JGMcSEGUxq5qfV1gp_m0-75" value="" style="html=1;points=[[0,0,0,0,5],[0,1,0,0,-5],[1,0,0,0,5],[1,1,0,0,-5]];perimeter=orthogonalPerimeter;outlineConnect=0;targetShapes=umlLifeline;portConstraint=eastwest;newEdgeStyle={&quot;curved&quot;:0,&quot;rounded&quot;:0};" parent="2" vertex="1">
          <mxGeometry x="510" y="360" width="10" height="78" as="geometry" />
        </mxCell>
        <mxCell id="JGMcSEGUxq5qfV1gp_m0-76" value="" style="endArrow=open;endFill=1;endSize=12;html=1;rounded=0;" parent="2" edge="1">
          <mxGeometry width="160" relative="1" as="geometry">
            <mxPoint x="400" y="489.5" as="sourcePoint" />
            <mxPoint x="500" y="489.5" as="targetPoint" />
            <Array as="points" />
          </mxGeometry>
        </mxCell>
        <mxCell id="JGMcSEGUxq5qfV1gp_m0-79" value="tampilkan data buku" style="text;html=1;align=center;verticalAlign=middle;resizable=0;points=[];autosize=1;strokeColor=none;fillColor=none;" parent="2" vertex="1">
          <mxGeometry x="390" y="421" width="130" height="30" as="geometry" />
        </mxCell>
        <mxCell id="JGMcSEGUxq5qfV1gp_m0-77" value="buku by ID" style="text;html=1;align=center;verticalAlign=middle;resizable=0;points=[];autosize=1;strokeColor=none;fillColor=none;" parent="2" vertex="1">
          <mxGeometry x="405" y="460" width="80" height="30" as="geometry" />
        </mxCell>
        <mxCell id="JGMcSEGUxq5qfV1gp_m0-82" value="" style="html=1;points=[[0,0,0,0,5],[0,1,0,0,-5],[1,0,0,0,5],[1,1,0,0,-5]];perimeter=orthogonalPerimeter;outlineConnect=0;targetShapes=umlLifeline;portConstraint=eastwest;newEdgeStyle={&quot;curved&quot;:0,&quot;rounded&quot;:0};" parent="2" vertex="1">
          <mxGeometry x="640" y="360" width="10" height="78" as="geometry" />
        </mxCell>
        <mxCell id="JGMcSEGUxq5qfV1gp_m0-78" value="cari" style="text;html=1;align=center;verticalAlign=middle;resizable=0;points=[];autosize=1;strokeColor=none;fillColor=none;" parent="2" vertex="1">
          <mxGeometry x="420" y="340" width="40" height="30" as="geometry" />
        </mxCell>
        <mxCell id="JGMcSEGUxq5qfV1gp_m0-73" value="menu cari" style="text;html=1;align=center;verticalAlign=middle;resizable=0;points=[];autosize=1;strokeColor=none;fillColor=none;" parent="2" vertex="1">
          <mxGeometry x="160" y="200" width="80" height="30" as="geometry" />
        </mxCell>
        <mxCell id="JGMcSEGUxq5qfV1gp_m0-67" value="data buku yang dicari tampil" style="text;html=1;align=center;verticalAlign=middle;resizable=0;points=[];autosize=1;strokeColor=none;fillColor=none;" parent="2" vertex="1">
          <mxGeometry x="90" y="400" width="170" height="30" as="geometry" />
        </mxCell>
        <mxCell id="JGMcSEGUxq5qfV1gp_m0-84" value="" style="endArrow=open;endFill=1;endSize=12;html=1;rounded=0;" parent="2" edge="1">
          <mxGeometry width="160" relative="1" as="geometry">
            <mxPoint x="530" y="370" as="sourcePoint" />
            <mxPoint x="620" y="370" as="targetPoint" />
            <Array as="points" />
          </mxGeometry>
        </mxCell>
        <mxCell id="JGMcSEGUxq5qfV1gp_m0-85" value="cari buku" style="text;html=1;align=center;verticalAlign=middle;resizable=0;points=[];autosize=1;strokeColor=none;fillColor=none;" parent="2" vertex="1">
          <mxGeometry x="535" y="346" width="70" height="30" as="geometry" />
        </mxCell>
        <mxCell id="JGMcSEGUxq5qfV1gp_m0-86" value="&amp;nbsp;data buku" style="text;html=1;align=center;verticalAlign=middle;resizable=0;points=[];autosize=1;strokeColor=none;fillColor=none;" parent="2" vertex="1">
          <mxGeometry x="550" y="418" width="80" height="30" as="geometry" />
        </mxCell>
        <mxCell id="JGMcSEGUxq5qfV1gp_m0-87" value="" style="html=1;points=[[0,0,0,0,5],[0,1,0,0,-5],[1,0,0,0,5],[1,1,0,0,-5]];perimeter=orthogonalPerimeter;outlineConnect=0;targetShapes=umlLifeline;portConstraint=eastwest;newEdgeStyle={&quot;curved&quot;:0,&quot;rounded&quot;:0};" parent="2" vertex="1">
          <mxGeometry x="510" y="452" width="10" height="78" as="geometry" />
        </mxCell>
        <mxCell id="JGMcSEGUxq5qfV1gp_m0-89" value="" style="html=1;points=[[0,0,0,0,5],[0,1,0,0,-5],[1,0,0,0,5],[1,1,0,0,-5]];perimeter=orthogonalPerimeter;outlineConnect=0;targetShapes=umlLifeline;portConstraint=eastwest;newEdgeStyle={&quot;curved&quot;:0,&quot;rounded&quot;:0};" parent="2" vertex="1">
          <mxGeometry x="640" y="452" width="10" height="78" as="geometry" />
        </mxCell>
        <mxCell id="JGMcSEGUxq5qfV1gp_m0-90" value="" style="endArrow=open;endFill=1;endSize=12;html=1;rounded=0;" parent="2" edge="1">
          <mxGeometry width="160" relative="1" as="geometry">
            <mxPoint x="530" y="510" as="sourcePoint" />
            <mxPoint x="630" y="510" as="targetPoint" />
            <Array as="points">
              <mxPoint x="580" y="510" />
            </Array>
          </mxGeometry>
        </mxCell>
        <mxCell id="JGMcSEGUxq5qfV1gp_m0-135" value="" style="endArrow=open;endFill=1;endSize=12;html=1;rounded=0;" parent="2" edge="1">
          <mxGeometry width="160" relative="1" as="geometry">
            <mxPoint x="670" y="520" as="sourcePoint" />
            <mxPoint x="770" y="520" as="targetPoint" />
            <Array as="points">
              <mxPoint x="730" y="520" />
            </Array>
          </mxGeometry>
        </mxCell>
        <mxCell id="JGMcSEGUxq5qfV1gp_m0-136" value="load buku by id" style="text;html=1;align=center;verticalAlign=middle;resizable=0;points=[];autosize=1;strokeColor=none;fillColor=none;" parent="2" vertex="1">
          <mxGeometry x="520" y="490" width="100" height="30" as="geometry" />
        </mxCell>
        <mxCell id="JGMcSEGUxq5qfV1gp_m0-139" value="" style="endArrow=none;dashed=1;html=1;rounded=0;" parent="2" source="JGMcSEGUxq5qfV1gp_m0-82" edge="1">
          <mxGeometry width="50" height="50" relative="1" as="geometry">
            <mxPoint x="590" y="200" as="sourcePoint" />
            <mxPoint x="640" y="150" as="targetPoint" />
          </mxGeometry>
        </mxCell>
        <mxCell id="JGMcSEGUxq5qfV1gp_m0-140" value="" style="endArrow=none;dashed=1;html=1;rounded=0;entryX=0.5;entryY=1;entryDx=0;entryDy=0;" parent="2" source="JGMcSEGUxq5qfV1gp_m0-75" edge="1">
          <mxGeometry width="50" height="50" relative="1" as="geometry">
            <mxPoint x="470" y="220" as="sourcePoint" />
            <mxPoint x="515" y="152.00000000000023" as="targetPoint" />
          </mxGeometry>
        </mxCell>
        <mxCell id="JGMcSEGUxq5qfV1gp_m0-142" value="" style="endArrow=none;dashed=1;html=1;dashPattern=1 3;strokeWidth=2;rounded=0;entryX=0.5;entryY=1;entryDx=0;entryDy=0;" parent="2" source="JGMcSEGUxq5qfV1gp_m0-46" edge="1">
          <mxGeometry width="50" height="50" relative="1" as="geometry">
            <mxPoint x="220" y="210" as="sourcePoint" />
            <mxPoint x="265" y="152.00000000000023" as="targetPoint" />
          </mxGeometry>
        </mxCell>
        <mxCell id="JGMcSEGUxq5qfV1gp_m0-143" value="" style="endArrow=none;dashed=1;html=1;dashPattern=1 3;strokeWidth=2;rounded=0;" parent="2" target="JGMcSEGUxq5qfV1gp_m0-46" edge="1">
          <mxGeometry width="50" height="50" relative="1" as="geometry">
            <mxPoint x="265" y="570" as="sourcePoint" />
            <mxPoint x="280" y="320" as="targetPoint" />
          </mxGeometry>
        </mxCell>
        <mxCell id="JGMcSEGUxq5qfV1gp_m0-144" value="" style="endArrow=none;dashed=1;html=1;dashPattern=1 3;strokeWidth=2;rounded=0;exitX=0;exitY=0;exitDx=0;exitDy=5;exitPerimeter=0;" parent="2" edge="1">
          <mxGeometry width="50" height="50" relative="1" as="geometry">
            <mxPoint x="380" y="465" as="sourcePoint" />
            <mxPoint x="380" y="440" as="targetPoint" />
          </mxGeometry>
        </mxCell>
        <mxCell id="JGMcSEGUxq5qfV1gp_m0-145" value="" style="endArrow=none;dashed=1;html=1;dashPattern=1 3;strokeWidth=2;rounded=0;entryX=0;entryY=1;entryDx=0;entryDy=-5;entryPerimeter=0;" parent="2" source="JGMcSEGUxq5qfV1gp_m0-87" target="JGMcSEGUxq5qfV1gp_m0-75" edge="1">
          <mxGeometry width="50" height="50" relative="1" as="geometry">
            <mxPoint x="390" y="475" as="sourcePoint" />
            <mxPoint x="530" y="440" as="targetPoint" />
          </mxGeometry>
        </mxCell>
        <mxCell id="JGMcSEGUxq5qfV1gp_m0-146" value="" style="endArrow=none;dashed=1;html=1;rounded=0;exitX=0;exitY=0;exitDx=0;exitDy=5;exitPerimeter=0;" parent="2" source="JGMcSEGUxq5qfV1gp_m0-89" target="JGMcSEGUxq5qfV1gp_m0-82" edge="1">
          <mxGeometry width="50" height="50" relative="1" as="geometry">
            <mxPoint x="610" y="490" as="sourcePoint" />
            <mxPoint x="660" y="440" as="targetPoint" />
          </mxGeometry>
        </mxCell>
        <mxCell id="JGMcSEGUxq5qfV1gp_m0-147" value="" style="endArrow=none;dashed=1;html=1;dashPattern=1 3;strokeWidth=2;rounded=0;" parent="2" edge="1">
          <mxGeometry width="50" height="50" relative="1" as="geometry">
            <mxPoint x="385" y="570" as="sourcePoint" />
            <mxPoint x="385" y="530" as="targetPoint" />
          </mxGeometry>
        </mxCell>
        <mxCell id="JGMcSEGUxq5qfV1gp_m0-148" value="" style="endArrow=none;dashed=1;html=1;dashPattern=1 3;strokeWidth=2;rounded=0;" parent="2" target="JGMcSEGUxq5qfV1gp_m0-87" edge="1">
          <mxGeometry width="50" height="50" relative="1" as="geometry">
            <mxPoint x="515" y="570" as="sourcePoint" />
            <mxPoint x="510" y="520" as="targetPoint" />
          </mxGeometry>
        </mxCell>
        <mxCell id="JGMcSEGUxq5qfV1gp_m0-149" value="" style="endArrow=none;dashed=1;html=1;dashPattern=1 3;strokeWidth=2;rounded=0;" parent="2" target="JGMcSEGUxq5qfV1gp_m0-89" edge="1">
          <mxGeometry width="50" height="50" relative="1" as="geometry">
            <mxPoint x="650" y="570" as="sourcePoint" />
            <mxPoint x="690" y="530" as="targetPoint" />
          </mxGeometry>
        </mxCell>
        <mxCell id="JGMcSEGUxq5qfV1gp_m0-151" value="Control pencarian" style="ellipse;shape=umlControl;whiteSpace=wrap;html=1;" parent="2" vertex="1">
          <mxGeometry x="485" y="100" width="60" height="62" as="geometry" />
        </mxCell>
        <mxCell id="JGMcSEGUxq5qfV1gp_m0-152" value="Control home" style="ellipse;shape=umlControl;whiteSpace=wrap;html=1;" parent="2" vertex="1">
          <mxGeometry x="235" y="82" width="60" height="62" as="geometry" />
        </mxCell>
        <mxCell id="JGMcSEGUxq5qfV1gp_m0-154" value="" style="shape=umlFrame;whiteSpace=wrap;html=1;pointerEvents=0;" parent="2" vertex="1">
          <mxGeometry width="830" height="570" as="geometry" />
        </mxCell>
        <mxCell id="JGMcSEGUxq5qfV1gp_m0-158" value="view&lt;div&gt;&amp;nbsp;home&lt;/div&gt;" style="shape=umlLifeline;perimeter=lifelinePerimeter;whiteSpace=wrap;html=1;container=1;dropTarget=0;collapsible=0;recursiveResize=0;outlineConnect=0;portConstraint=eastwest;newEdgeStyle={&quot;curved&quot;:0,&quot;rounded&quot;:0};participant=umlBoundary;" parent="2" vertex="1">
          <mxGeometry x="120" y="100" width="60" height="469" as="geometry" />
        </mxCell>
        <mxCell id="JGMcSEGUxq5qfV1gp_m0-160" value="" style="html=1;points=[[0,0,0,0,5],[0,1,0,0,-5],[1,0,0,0,5],[1,1,0,0,-5]];perimeter=orthogonalPerimeter;outlineConnect=0;targetShapes=umlLifeline;portConstraint=eastwest;newEdgeStyle={&quot;curved&quot;:0,&quot;rounded&quot;:0};" parent="JGMcSEGUxq5qfV1gp_m0-158" vertex="1">
          <mxGeometry x="25" y="80" width="10" height="120" as="geometry" />
        </mxCell>
        <mxCell id="JGMcSEGUxq5qfV1gp_m0-161" value="view&lt;div&gt;&amp;nbsp;detail&lt;/div&gt;" style="shape=umlLifeline;perimeter=lifelinePerimeter;whiteSpace=wrap;html=1;container=1;dropTarget=0;collapsible=0;recursiveResize=0;outlineConnect=0;portConstraint=eastwest;newEdgeStyle={&quot;curved&quot;:0,&quot;rounded&quot;:0};participant=umlBoundary;" parent="2" vertex="1">
          <mxGeometry x="760" y="100" width="60" height="469" as="geometry" />
        </mxCell>
        <mxCell id="JGMcSEGUxq5qfV1gp_m0-163" value="" style="html=1;points=[[0,0,0,0,5],[0,1,0,0,-5],[1,0,0,0,5],[1,1,0,0,-5]];perimeter=orthogonalPerimeter;outlineConnect=0;targetShapes=umlLifeline;portConstraint=eastwest;newEdgeStyle={&quot;curved&quot;:0,&quot;rounded&quot;:0};" parent="JGMcSEGUxq5qfV1gp_m0-161" vertex="1">
          <mxGeometry x="25" y="350" width="10" height="78" as="geometry" />
        </mxCell>
        <mxCell id="JGMcSEGUxq5qfV1gp_m0-164" value="view&lt;div&gt;&amp;nbsp;pencarian&lt;/div&gt;" style="shape=umlLifeline;perimeter=lifelinePerimeter;whiteSpace=wrap;html=1;container=1;dropTarget=0;collapsible=0;recursiveResize=0;outlineConnect=0;portConstraint=eastwest;newEdgeStyle={&quot;curved&quot;:0,&quot;rounded&quot;:0};participant=umlBoundary;" parent="2" vertex="1">
          <mxGeometry x="355" y="110" width="55" height="460" as="geometry" />
        </mxCell>
        <mxCell id="JGMcSEGUxq5qfV1gp_m0-166" value="" style="html=1;points=[[0,0,0,0,5],[0,1,0,0,-5],[1,0,0,0,5],[1,1,0,0,-5]];perimeter=orthogonalPerimeter;outlineConnect=0;targetShapes=umlLifeline;portConstraint=eastwest;newEdgeStyle={&quot;curved&quot;:0,&quot;rounded&quot;:0};" parent="JGMcSEGUxq5qfV1gp_m0-164" vertex="1">
          <mxGeometry x="22.5" y="250" width="10" height="78" as="geometry" />
        </mxCell>
        <mxCell id="JGMcSEGUxq5qfV1gp_m0-167" value="" style="html=1;points=[[0,0,0,0,5],[0,1,0,0,-5],[1,0,0,0,5],[1,1,0,0,-5]];perimeter=orthogonalPerimeter;outlineConnect=0;targetShapes=umlLifeline;portConstraint=eastwest;newEdgeStyle={&quot;curved&quot;:0,&quot;rounded&quot;:0};" parent="JGMcSEGUxq5qfV1gp_m0-164" vertex="1">
          <mxGeometry x="22.5" y="340" width="10" height="78" as="geometry" />
        </mxCell>
        <mxCell id="JGMcSEGUxq5qfV1gp_m0-168" value="data buku" style="shape=umlLifeline;perimeter=lifelinePerimeter;whiteSpace=wrap;html=1;container=1;dropTarget=0;collapsible=0;recursiveResize=0;outlineConnect=0;portConstraint=eastwest;newEdgeStyle={&quot;curved&quot;:0,&quot;rounded&quot;:0};participant=umlEntity;" parent="2" vertex="1">
          <mxGeometry x="620" y="100" width="40" height="300" as="geometry" />
        </mxCell>
        <mxCell id="JGMcSEGUxq5qfV1gp_m0-137" value="buku by id" style="text;html=1;align=center;verticalAlign=middle;resizable=0;points=[];autosize=1;strokeColor=none;fillColor=none;" parent="2" vertex="1">
          <mxGeometry x="680" y="518" width="80" height="30" as="geometry" />
        </mxCell>
        <mxCell id="JGMcSEGUxq5qfV1gp_m0-70" value="klik buku" style="text;html=1;align=center;verticalAlign=middle;resizable=0;points=[];autosize=1;strokeColor=none;fillColor=none;" parent="1" vertex="1">
          <mxGeometry x="295" y="658" width="70" height="30" as="geometry" />
        </mxCell>
      </root>
    </mxGraphModel>
  </diagram>
</mxfile>
